<?xml version="1.0" encoding="UTF-8" standalone="no"?>
<!-- Generator: Gravit.io -->

<svg
   style="isolation:isolate"
   viewBox="0 0 60.8158 100"
   width="60.8158pt"
   height="100pt"
   version="1.1"
   id="svg13"
   sodipodi:docname="cutlery.svg"
   inkscape:version="1.1.1 (3bf5ae0d25, 2021-09-20)"
   xmlns:inkscape="http://www.inkscape.org/namespaces/inkscape"
   xmlns:sodipodi="http://sodipodi.sourceforge.net/DTD/sodipodi-0.dtd"
   xmlns="http://www.w3.org/2000/svg"
   xmlns:svg="http://www.w3.org/2000/svg">
  <sodipodi:namedview
     id="namedview15"
     pagecolor="#ffffff"
     bordercolor="#666666"
     borderopacity="1.0"
     inkscape:pageshadow="2"
     inkscape:pageopacity="0.0"
     inkscape:pagecheckerboard="0"
     inkscape:document-units="pt"
     showgrid="false"
     inkscape:zoom="3.46"
     inkscape:cx="40.317919"
     inkscape:cy="70.953757"
     inkscape:window-width="1600"
     inkscape:window-height="837"
     inkscape:window-x="-8"
     inkscape:window-y="-8"
     inkscape:window-maximized="1"
     inkscape:current-layer="g7130">
    <inkscape:grid
       type="xygrid"
       id="grid8186"
       originx="-19.902303"
       originy="-0.50484694" />
  </sodipodi:namedview>
  <defs
     id="defs5">
    <clipPath
       id="_clipPath_yURuyf0a1jFpgFFwKLdE0okXlhWz9Aju">
      <rect
         width="100"
         height="100"
         id="rect2"
         x="0"
         y="0" />
    </clipPath>
  </defs>
  <g
     clip-path="url(#_clipPath_yURuyf0a1jFpgFFwKLdE0okXlhWz9Aju)"
     id="g11"
     style="fill:#000000;fill-opacity:1;stroke-width:0.9;stroke-miterlimit:4;stroke-dasharray:none"
     transform="matrix(1.0174998,0,0,1.0174998,-20.777292,-1.379837)" />
  <g
     id="g7130"
     transform="translate(-18.316728,-2.979328)">
    <g
       id="g8143"
       transform="matrix(1.0090924,0,0,1.0090924,-0.17078374,-0.02708894)">
      <path
         style="fill:#ffffff;fill-opacity:1;stroke:#000000;stroke-width:0;stroke-linecap:round;stroke-linejoin:round;stroke-miterlimit:4;stroke-dasharray:none;stroke-opacity:1"
         d="M 78.576941,31.005162 V 2.9793282 L 78.166319,3.104891 C 77.256233,3.3831833 73.087954,5.6093664 71.507145,6.6614062 66.487363,10.002103 63.400702,13.933215 61.840569,18.972553 l -0.5085,1.642487 -0.05186,19.207979 -0.05186,19.207976 h 8.674277 8.674275 z"
         id="path5253" />
      <path
         style="fill:#ffffff;fill-opacity:1;stroke:#000000;stroke-width:0;stroke-linecap:round;stroke-linejoin:round;stroke-miterlimit:4;stroke-dasharray:none;stroke-opacity:1"
         d="m 74.875461,101.62256 c 1.226462,-0.48326 2.501617,-1.729987 3.120934,-3.051358 l 0.489297,-1.04395 0.05153,-18.112993 0.05153,-18.112981 H 72.83157 67.074382 l 0.04819,18.295481 0.04819,18.295491 0.422033,0.856803 c 0.53961,1.095517 1.644433,2.199187 2.736132,2.733277 1.206513,0.59027 3.244871,0.65313 4.54652,0.14023 z"
         id="path6889" />
    </g>
    <path
       style="fill:#feffff;fill-opacity:1;stroke:none;stroke-width:0;stroke-linecap:round;stroke-linejoin:round;stroke-miterlimit:4;stroke-dasharray:none;stroke-opacity:1"
       d="m 31.05898,102.26458 c -0.284445,-0.58755 -0.37064,-1.15965 -0.484549,-3.21586 -0.07621,-1.375625 -0.143277,-14.256914 -0.149046,-28.625088 l -0.01048,-26.12395 -1.377596,-0.783694 c -2.982091,-1.696477 -6.39181,-4.729014 -7.865043,-6.99503 -1.112619,-1.711341 -2.188151,-4.099748 -2.444409,-5.428223 -0.197753,-1.025176 -0.255155,-3.603404 -0.3256,-14.624189 L 18.316728,3.0889549 h 2.877366 2.877366 v 12.1488261 12.14883 h 3.176164 3.176165 V 15.237781 3.0889549 h 5.875905 5.875904 V 15.262486 27.436014 l 2.263016,-0.10352 c 1.24466,-0.05696 2.673934,-0.103788 3.176166,-0.104106 l 0.913147,-5.84e-4 V 15.158379 3.0889549 h 2.858547 2.858548 l -0.003,10.9180621 c -0.0042,15.192259 -0.135282,17.038589 -1.424646,20.072791 -1.515379,3.566068 -4.528174,6.630432 -9.231235,9.389248 l -1.368648,0.802852 -0.08053,28.281745 c -0.0752,26.413318 -0.09877,28.323737 -0.356704,28.916987 -0.151903,0.34937 -0.415805,0.83175 -0.586451,1.07195 l -0.310263,0.43674 h -4.739268 -4.739265 l -0.345991,-0.71475 z"
       id="path7169" />
  </g>
</svg>
