<?xml version="1.0" encoding="UTF-8" standalone="no"?>
<!-- Generator: Gravit.io -->

<svg
   style="isolation:isolate"
   viewBox="0 0 112.9344 100"
   width="112.9344pt"
   height="100pt"
   version="1.1"
   id="svg13"
   sodipodi:docname="handshake.svg"
   inkscape:version="1.1.1 (3bf5ae0d25, 2021-09-20)"
   xmlns:inkscape="http://www.inkscape.org/namespaces/inkscape"
   xmlns:sodipodi="http://sodipodi.sourceforge.net/DTD/sodipodi-0.dtd"
   xmlns="http://www.w3.org/2000/svg"
   xmlns:svg="http://www.w3.org/2000/svg">
  <sodipodi:namedview
     id="namedview15"
     pagecolor="#ffffff"
     bordercolor="#666666"
     borderopacity="1.0"
     inkscape:pageshadow="2"
     inkscape:pageopacity="0.0"
     inkscape:pagecheckerboard="0"
     inkscape:document-units="pt"
     showgrid="false"
     inkscape:zoom="2.1366456"
     inkscape:cx="8.1904086"
     inkscape:cy="17.082852"
     inkscape:window-width="1600"
     inkscape:window-height="837"
     inkscape:window-x="-8"
     inkscape:window-y="-8"
     inkscape:window-maximized="1"
     inkscape:current-layer="g7130">
    <inkscape:grid
       type="xygrid"
       id="grid8186"
       originx="-20.007908"
       originy="-19.263831" />
  </sodipodi:namedview>
  <defs
     id="defs5">
    <clipPath
       id="_clipPath_yURuyf0a1jFpgFFwKLdE0okXlhWz9Aju">
      <rect
         width="100"
         height="100"
         id="rect2"
         x="0"
         y="0" />
    </clipPath>
  </defs>
  <g
     clip-path="url(#_clipPath_yURuyf0a1jFpgFFwKLdE0okXlhWz9Aju)"
     id="g11"
     style="fill:#000000;fill-opacity:1;stroke-width:0.9;stroke-miterlimit:4;stroke-dasharray:none"
     transform="matrix(1.0174998,0,0,1.0174998,-20.882898,-20.138821)" />
  <g
     id="g7130"
     transform="translate(-18.422334,-21.738312)">
    <g
       id="g8337"
       transform="matrix(0.17878815,-0.14859569,0.14859569,0.17878815,67.252533,83.562965)">
      <path
         d="m 219.23721,85.11262 c -1.1602,5.4062 -4.0469,10.293 -8.2266,13.914 l -11.199,9.9727 -154.35,-108.94 c -5.8398,1.4258 -11.383,3.8867 -16.359,7.2617 l -46.727,26.773 v 0.004 c -3.3711,1.7539 -7.1406,2.6016 -10.938,2.4492 -14.23,-0.20312 -27.824,-5.9492 -37.887,-16.012 -1.0586,-1.1836 -1.5742,-2.75 -1.4258,-4.3281 0.15234,-1.5781 0.95312,-3.0234 2.2109,-3.9844 l 76.824,-52.5 h 0.004 c 7.3008,-3.6484 15.227,-5.875 23.359,-6.5625 l 112.79,-22.75 c 4.3242,-1.1914 8.8906,-1.1914 13.211,0 6.2578,1.4766 11.539,5.6406 14.438,11.375 z"
         id="path43"
         style="fill:#ffffff;fill-opacity:1" />
      <path
         d="m 290.08721,69.65262 -55.316,16.891 -49.316,-161.51 102.68,-31.355 34.855,114.15 c 3.8359,12.562 2.5234,26.133 -3.6484,37.73 -6.168,11.594 -16.691,20.262 -29.254,24.098 z"
         id="path45"
         style="fill:#ffffff;fill-opacity:1" />
      <path
         d="m -182.84279,-108.61738 88.914,32.781 -51.461,139.57 -52.871,-19.496 c -9.6172,-3.4453 -17.449,-10.613 -21.727,-19.891 -4.2773,-9.2773 -4.6484,-19.887 -1.0273,-29.438 z"
         id="path47"
         style="fill:#ffffff;fill-opacity:1" />
      <path
         d="m 206.01721,143.56262 c 0.0195,6.2891 -2.5039,12.316 -7,16.715 -4.1133,3.8125 -9.4258,6.082 -15.027,6.4141 -5.5977,0.33594 -11.145,-1.2812 -15.684,-4.5781 h -0.52344 l -12.426,-8.75 c 3,4.0508 4.625,8.957 4.6367,14 0.0391,0.75781 0.0391,1.5156 0,2.2734 -0.40234,3.832 -1.7539,7.5039 -3.9375,10.676 -2.5859,3.668 -6.1719,6.5156 -10.328,8.207 -4.1562,1.6875 -8.7109,2.1523 -13.121,1.332 -3.1523,-0.66016 -6.1328,-1.9727 -8.75,-3.8516 l -6.3867,-4.4609 -6.8242,-4.8125 h -0.004 c 1.3086,2.2812 2.2266,4.7656 2.7148,7.3477 1.1953,6.1875 -0.16016,12.59 -3.7539,17.766 -3.5938,5.1719 -9.1211,8.6719 -15.336,9.7109 -6.2109,1.0391 -12.582,-0.47656 -17.66,-4.1992 l -8.2266,-5.7734 v -0.004 c 1.1016,2.7852 1.668,5.7578 1.6641,8.75 v 1.1367 0.004 c -0.21094,4.875 -1.957,9.5586 -4.9883,13.387 -4.0117,4.6719 -9.6367,7.6523 -15.754,8.3516 -6.1172,0.69922 -12.273,-0.94141 -17.234,-4.5898 l -83.387,-57.75 c -1.5742,-1.1367 -18.289,-18.727 -18.289,-18.727 l -56.352,-59.938 h 0.004 c -4.293,-4.1523 -7.1172,-9.5859 -8.0508,-15.484 l 56,-151.99 c 2.1641,-3.8086 5.3555,-6.9336 9.207,-9.0195 3.8477,-2.0898 8.207,-3.0547 12.582,-2.793 l 101.85,6.4766 -0.004,-0.004 c 2.8477,0.19141 5.6367,0.90234 8.2266,2.1016 1.543,0.42578 3.0391,1.0117 4.4609,1.75 l 11.289,6.9141 -42.699,8.75 c -8.668,0.875 -17.031,3.6562 -24.5,8.1367 l -76.824,52.5 h -0.004 c -4.6797,3.1016 -7.8516,8.0195 -8.75,13.562 -0.90625,5.8516 0.61328,11.824 4.2031,16.535 12.945,13.91 31.047,21.883 50.047,22.051 6.5234,0.24219 12.988,-1.2695 18.727,-4.375 l 46.637,-26.688 6.3008,-3.5859 156.62,110.16 c 0.69531,0.71484 1.3398,1.4727 1.9258,2.2773 3.0547,4.0625 4.7109,9.0039 4.7227,14.086 z"
         id="path49"
         style="fill:#ffffff;fill-opacity:1" />
    </g>
  </g>
</svg>
