<?xml version="1.0" encoding="UTF-8" standalone="no"?>
<svg
   version="1.1"
   x="0px"
   y="0px"
   viewBox="0 0 100 100"
   enable-background="new 0 0 100 100"
   xml:space="preserve"
   id="svg8"
   sodipodi:docname="heart-rainbow.svg"
   width="100"
   height="100"
   inkscape:version="1.1.1 (3bf5ae0d25, 2021-09-20)"
   xmlns:inkscape="http://www.inkscape.org/namespaces/inkscape"
   xmlns:sodipodi="http://sodipodi.sourceforge.net/DTD/sodipodi-0.dtd"
   xmlns:xlink="http://www.w3.org/1999/xlink"
   xmlns="http://www.w3.org/2000/svg"
   xmlns:svg="http://www.w3.org/2000/svg"><defs
     id="defs12"><linearGradient
       inkscape:collect="always"
       id="linearGradient3852"><stop
         style="stop-color:#9356dc;stop-opacity:1"
         offset="0"
         id="stop3848" /><stop
         style="stop-color:#ff79da;stop-opacity:1"
         offset="1"
         id="stop3850" /></linearGradient><linearGradient
       inkscape:collect="always"
       xlink:href="#linearGradient3852"
       id="linearGradient3854"
       x1="50.483196"
       y1="11.857514"
       x2="51.258728"
       y2="90.143578"
       gradientUnits="userSpaceOnUse"
       gradientTransform="matrix(1.1147825,0,0,1.1147825,-5.6711137,-4.7766105)" /></defs><sodipodi:namedview
     id="namedview10"
     pagecolor="#ffffff"
     bordercolor="#666666"
     borderopacity="1.0"
     inkscape:pageshadow="2"
     inkscape:pageopacity="0.0"
     inkscape:pagecheckerboard="0"
     showgrid="false"
     height="100px"
     inkscape:zoom="1.0729879"
     inkscape:cx="-55.452629"
     inkscape:cy="68.500306"
     inkscape:window-width="1600"
     inkscape:window-height="837"
     inkscape:window-x="-8"
     inkscape:window-y="-8"
     inkscape:window-maximized="1"
     inkscape:current-layer="svg8" /><g
     id="g2153"
     transform="matrix(0.420727,0,0,0.420727,152.2992,-66.239188)" /><path
     style="fill:url(#linearGradient3854);fill-opacity:1;fill-rule:nonzero;stroke:#df1b1b;stroke-width:0;stroke-linecap:round;stroke-linejoin:round;stroke-miterlimit:0;stroke-dasharray:none;stroke-opacity:1"
     d="M 36.286546,81.206328 C 20.305886,65.794678 8.0033663,51.898838 4.2754263,45.049378 c -8.00978,-14.71661 -1.83904,-32.74703 12.6487697,-36.9587525 11.17776,-3.249462 21.51931,0.07899 27.917978,8.9854695 2.038915,2.838013 4.342091,5.160033 5.118172,5.160033 0.776081,0 2.851015,-2.09291 4.610967,-4.650909 1.75995,-2.558 5.405754,-5.947579 8.101786,-7.532399 4.192775,-2.4646555 6.040866,-2.8814895 12.775488,-2.8814895 6.944471,0 8.471592,0.369704 12.940951,3.1328955 6.808367,4.209289 10.873461,11.763822 10.873461,20.207112 0,7.3347 -1.318239,11.36964 -6.121674,18.73754 -3.647203,5.59436 -38.371276,41.87048 -41.872965,43.74453 -1.430085,0.76535 -4.339256,-1.52346 -14.981814,-11.78708 z"
     id="path1080" /></svg>
