<?xml version="1.0" encoding="UTF-8" standalone="no"?>
<svg
   version="1.1"
   x="0px"
   y="0px"
   viewBox="0 0 100 100"
   enable-background="new 0 0 100 100"
   xml:space="preserve"
   id="svg8"
   sodipodi:docname="heart.svg"
   width="100"
   height="100"
   inkscape:version="1.1.1 (3bf5ae0d25, 2021-09-20)"
   xmlns:inkscape="http://www.inkscape.org/namespaces/inkscape"
   xmlns:sodipodi="http://sodipodi.sourceforge.net/DTD/sodipodi-0.dtd"
   xmlns="http://www.w3.org/2000/svg"
   xmlns:svg="http://www.w3.org/2000/svg"><defs
     id="defs12" /><sodipodi:namedview
     id="namedview10"
     pagecolor="#ffffff"
     bordercolor="#666666"
     borderopacity="1.0"
     inkscape:pageshadow="2"
     inkscape:pageopacity="0.0"
     inkscape:pagecheckerboard="0"
     showgrid="false"
     height="100px"
     inkscape:zoom="1.0729879"
     inkscape:cx="-56.384604"
     inkscape:cy="68.500304"
     inkscape:window-width="1600"
     inkscape:window-height="837"
     inkscape:window-x="-8"
     inkscape:window-y="-8"
     inkscape:window-maximized="1"
     inkscape:current-layer="svg8" /><g
     id="g2153"
     transform="matrix(0.420727,0,0,0.420727,152.2992,-66.239188)" /><path
     d="M 97.023937,22.332748 C 94.794091,16.108438 90.523777,11.25121 85.0038,8.6516851 81.230063,6.8691238 76.996116,5.929906 72.753274,5.929906 c -9.406301,0 -18.113679,4.527018 -22.184358,11.528204 L 49.964398,18.491846 49.436196,17.58884 C 45.36939,10.574114 36.657366,6.0470971 27.246038,6.0470971 c -4.238391,0 -8.472339,0.9385184 -12.241437,2.7173279 C 9.4846305,11.364529 5.215285,16.221952 2.9807945,22.441617 0.38514039,29.672421 0.79176479,38.117489 4.0590962,45.032209 11.610252,60.988387 47.367719,92.389655 48.884337,93.722494 c 0.279584,0.248617 0.672532,0.3476 1.051861,0.3476 0.07708,0 0.153396,-0.0041 0.230469,-0.01356 0.361204,-0.03629 0.726932,-0.235006 0.997444,-0.496458 2.094633,-1.836985 37.288594,-32.837414 44.771078,-48.659333 3.27271,-6.905045 3.67933,-15.341212 1.08813,-22.567379 z M 93.002396,43.507316 C 86.403383,57.45514 55.767968,85.115549 49.93751,90.305695 43.78052,84.821127 13.548442,57.477957 7.0022383,43.642726 4.0906866,37.490188 3.7295229,29.974623 6.0410462,23.537913 7.9822715,18.139617 11.656193,13.937396 16.391162,11.70755 c 3.340036,-1.57552 7.095589,-2.410525 10.855592,-2.410525 8.273672,0 15.879188,3.895411 19.381324,9.929954 l 1.927647,3.281804 c 0.279589,0.47833 0.785124,0.780593 1.340522,0.803242 0.555405,0.02267 1.083606,-0.24407 1.399463,-0.699727 0.02268,-0.03173 0.135265,-0.198732 0.157932,-0.235 l 1.923123,-3.281804 c 3.502337,-6.020998 11.108042,-9.916415 19.377459,-9.916415 3.764643,0 7.520197,0.834987 10.864683,2.410524 4.734968,2.229852 8.408891,6.432072 10.345477,11.839459 2.305481,6.432844 1.944324,13.939499 -0.962704,20.077734 z"
     id="path2-2"
     style="fill:#000000;fill-opacity:1;stroke:#000000;stroke-width:1.093;stroke-miterlimit:4;stroke-dasharray:none;stroke-opacity:1" /></svg>
