<?xml version="1.0" encoding="UTF-8" standalone="no"?>
<svg
   version="1.1"
   x="0px"
   y="0px"
   viewBox="0 0 100 100"
   enable-background="new 0 0 100 100"
   xml:space="preserve"
   id="svg8"
   sodipodi:docname="menu.svg"
   width="100"
   height="100"
   inkscape:version="1.1.1 (3bf5ae0d25, 2021-09-20)"
   xmlns:inkscape="http://www.inkscape.org/namespaces/inkscape"
   xmlns:sodipodi="http://sodipodi.sourceforge.net/DTD/sodipodi-0.dtd"
   xmlns="http://www.w3.org/2000/svg"
   xmlns:svg="http://www.w3.org/2000/svg"><defs
     id="defs12" /><sodipodi:namedview
     id="namedview10"
     pagecolor="#ffffff"
     bordercolor="#666666"
     borderopacity="1.0"
     inkscape:pageshadow="2"
     inkscape:pageopacity="0.0"
     inkscape:pagecheckerboard="0"
     showgrid="false"
     height="100px"
     inkscape:zoom="1.0079515"
     inkscape:cx="17.361946"
     inkscape:cy="47.125283"
     inkscape:window-width="1600"
     inkscape:window-height="837"
     inkscape:window-x="-8"
     inkscape:window-y="-8"
     inkscape:window-maximized="1"
     inkscape:current-layer="svg8" /><g
     id="g46"
     transform="matrix(0.20179773,0,0,0.20179773,-20.629206,-6.4914583)"><path
       d="m 572.48,92.984 h -345.8 c -9.332,0 -17.035,7.582 -17.035,17.035 0,9.4492 7.582,17.035 17.035,17.035 h 345.8 c 9.332,0 17.035,-7.582 17.035,-17.035 -0.004,-9.4531 -7.5859,-17.035 -17.035,-17.035 z"
       id="path22"
       style="fill:#9356dc;fill-opacity:1" /><path
       d="m 572.48,262.96 h -345.8 c -9.332,0 -17.035,7.582 -17.035,17.035 0,9.4492 7.582,17.035 17.035,17.035 h 345.8 c 9.332,0 17.035,-7.582 17.035,-17.035 -0.004,-9.4492 -7.5859,-17.035 -17.035,-17.035 z"
       id="path24"
       style="fill:#9356dc;fill-opacity:1" /><path
       d="m 572.48,432.95 h -345.8 c -9.332,0 -17.035,7.582 -17.035,17.035 0,9.4492 7.582,17.035 17.035,17.035 h 345.8 c 9.332,0 17.035,-7.582 17.035,-17.035 -0.004,-9.4492 -7.5859,-17.035 -17.035,-17.035 z"
       id="path26"
       style="fill:#9356dc;fill-opacity:1" /><path
       d="m 131.02,89.602 c -11.316,0 -20.535,9.2148 -20.535,20.535 0,11.316 9.2148,20.535 20.535,20.535 11.434,0.11328 20.652,-9.1055 20.652,-20.422 0,-11.3165 -9.2188,-20.648 -20.652,-20.648 z"
       id="path28"
       style="fill:#9356dc;fill-opacity:1" /><path
       d="m 131.02,259.46 c -11.316,0 -20.535,9.2148 -20.535,20.535 0,11.316 9.2148,20.535 20.535,20.535 11.434,0 20.652,-9.2188 20.652,-20.535 0,-11.3162 -9.2188,-20.535 -20.652,-20.535 z"
       id="path30"
       style="fill:#9356dc;fill-opacity:1" /><path
       d="m 131.02,429.21 c -11.316,0 -20.535,9.2148 -20.535,20.535 0,11.316 9.2148,20.535 20.535,20.535 11.316,0 20.535,-9.2148 20.535,-20.535 0,-11.316 -9.1016,-20.535 -20.535,-20.535 z"
       id="path32"
       style="fill:#9356dc;fill-opacity:1" /></g></svg>
