<?xml version="1.0" encoding="UTF-8" standalone="no"?>
<svg
   version="1.1"
   x="0px"
   y="0px"
   viewBox="0 0 100 100"
   enable-background="new 0 0 100 100"
   xml:space="preserve"
   id="svg8"
   sodipodi:docname="shop.svg"
   width="100"
   height="100"
   inkscape:version="1.1.1 (3bf5ae0d25, 2021-09-20)"
   xmlns:inkscape="http://www.inkscape.org/namespaces/inkscape"
   xmlns:sodipodi="http://sodipodi.sourceforge.net/DTD/sodipodi-0.dtd"
   xmlns="http://www.w3.org/2000/svg"
   xmlns:svg="http://www.w3.org/2000/svg"><defs
     id="defs12" /><sodipodi:namedview
     id="namedview10"
     pagecolor="#ffffff"
     bordercolor="#666666"
     borderopacity="1.0"
     inkscape:pageshadow="2"
     inkscape:pageopacity="0.0"
     inkscape:pagecheckerboard="0"
     showgrid="false"
     height="100px"
     inkscape:zoom="2.0149341"
     inkscape:cx="-56.82568"
     inkscape:cy="144.66974"
     inkscape:window-width="1600"
     inkscape:window-height="837"
     inkscape:window-x="-8"
     inkscape:window-y="-8"
     inkscape:window-maximized="1"
     inkscape:current-layer="svg8" /><g
     id="g2153"
     transform="matrix(0.420727,0,0,0.420727,152.2992,-66.239188)"><path
       d="m -126.43831,261.20672 v -1.94576 l -22.37035,-91.42301 c -0.97205,-2.9178 -2.9178,-4.86356 -5.8356,-4.86356 h -177.01043 c -2.9178,0 -5.8356,1.94576 -5.8356,4.86356 l -22.37036,91.42301 v 1.94576 c 0,11.6712 6.80764,21.39664 16.53476,25.28816 v 97.25861 c 0,3.88984 2.9178,5.8356 5.8356,5.8356 h 186.7392 c 3.88985,0 6.80765,-2.9178 5.83561,-6.80764 v -96.28741 c 11.6712,-4.86189 18.47884,-14.589 18.47884,-25.28649 z m -204.24601,116.712 v -88.50521 c 8.75341,0 16.53476,-3.88985 21.39665,-10.69916 4.86356,6.80765 12.64324,10.69916 22.37036,10.69916 9.72544,0 16.53475,-3.88985 22.37035,-10.69916 4.86356,6.80765 12.64325,10.69916 22.37036,10.69916 8.7534,0 16.53476,-3.88985 22.37036,-10.69916 4.86355,6.80765 13.61696,10.69916 22.37035,10.69916 8.7534,0 16.53476,-3.88985 22.37036,-10.69916 4.86356,5.8356 12.64325,9.72545 21.39665,10.69916 v 88.50521 z m 175.06801,-101.15179 c -8.7534,0 -15.56104,-6.80764 -15.56104,-15.56105 0,-3.88984 -2.9178,-5.8356 -6.80765,-5.8356 -3.88984,0 -6.80764,2.9178 -6.80764,6.80765 0,8.7534 -6.80765,15.56104 -15.56105,15.56104 -8.7534,0 -15.56104,-6.80764 -15.56104,-15.56104 0,-3.88985 -2.9178,-6.80765 -6.80765,-6.80765 -3.88984,0 -5.8356,2.9178 -5.8356,6.80765 0,8.7534 -6.80764,15.56104 -15.56104,15.56104 -8.7534,0 -15.56105,-6.80764 -15.56105,-15.56104 0,-3.88985 -2.9178,-6.80765 -6.80764,-6.80765 -3.88984,0 -6.80764,2.9178 -6.80764,6.80765 0,8.7534 -6.80765,15.56104 -15.56105,15.56104 -8.7534,0 -15.56105,-6.80764 -15.56105,-15.56104 0,-3.88985 -2.91779,-6.80765 -6.80764,-6.80765 -3.88984,0 -6.80764,2.9178 -6.80764,6.80765 0,8.7534 -6.80765,15.56104 -15.56105,15.56104 -8.7534,0 -15.56104,-6.80764 -15.56104,-14.589 l 20.4246,-85.58741 h 166.31461 l 20.4246,85.58741 c 1.93596,6.80932 -4.8719,13.61696 -13.6253,13.61696 z"
       id="path2"
       style="fill:#9356dc;fill-opacity:1;stroke-width:0.416828" /><path
       style="fill:#9356dc;fill-opacity:1;stroke:#9356dc;stroke-width:11.0949;stroke-linecap:round;stroke-linejoin:round;stroke-miterlimit:0;stroke-opacity:1"
       d="m -337.23323,276.46783 c -3.70913,-0.59408 -10.93137,-8.36756 -10.93137,-11.7657 0,-1.20664 4.38958,-20.63664 9.75461,-43.17779 5.36504,-22.54115 9.75462,-41.42401 9.75462,-41.96191 0,-0.5379 37.31138,-0.97333 82.91419,-0.96762 l 82.9142,0.0104 10.2533,43.43968 c 5.96142,25.25643 9.843,44.73243 9.27308,46.52807 -1.41678,4.46387 -9.12182,8.01357 -15.00052,6.91072 -6.1358,-1.15108 -9.50664,-4.8553 -11.93271,-13.11287 -1.70786,-5.81301 -2.44115,-6.55194 -6.93977,-6.99312 -5.8039,-0.56919 -8.91437,2.51163 -8.91437,8.82938 0,4.64522 -6.166,11.50792 -10.99554,12.23793 -9.19859,1.39041 -15.67805,-3.6092 -18.19283,-14.03774 -1.37081,-5.68465 -2.15313,-6.60193 -6.0043,-7.0402 -5.00827,-0.56993 -8.32791,2.72687 -8.32791,8.27063 0,1.89269 -1.88005,5.54541 -4.17789,8.11714 -3.26608,3.65538 -5.4025,4.67587 -9.78899,4.67587 -8.082,0 -12.70749,-3.62997 -14.69788,-11.53455 -2.01338,-7.99585 -4.25788,-10.15432 -9.88776,-9.50878 -3.60649,0.41353 -4.44611,1.43082 -5.79388,7.01989 -2.54583,10.55731 -9.06172,15.53533 -18.27151,13.95907 -4.73766,-0.81086 -10.91685,-7.48675 -10.91685,-11.79439 0,-6.00585 -2.68767,-9.45131 -7.3726,-9.45131 -5.03948,0 -6.50753,1.64535 -8.87936,9.95176 -0.9737,3.41 -2.71479,6.9838 -3.86908,7.94177 -2.8408,2.35766 -9.90591,4.10445 -13.96888,3.45369 z"
       id="path1865" /></g></svg>
