<?xml version="1.0" encoding="UTF-8" standalone="no"?>
<svg
   version="1.1"
   x="0px"
   y="0px"
   viewBox="0 0 100 100"
   enable-background="new 0 0 100 100"
   xml:space="preserve"
   id="svg8"
   sodipodi:docname="smartphone.svg"
   width="100"
   height="100"
   inkscape:version="1.1.1 (3bf5ae0d25, 2021-09-20)"
   xmlns:inkscape="http://www.inkscape.org/namespaces/inkscape"
   xmlns:sodipodi="http://sodipodi.sourceforge.net/DTD/sodipodi-0.dtd"
   xmlns="http://www.w3.org/2000/svg"
   xmlns:svg="http://www.w3.org/2000/svg"><defs
     id="defs12" /><sodipodi:namedview
     id="namedview10"
     pagecolor="#ffffff"
     bordercolor="#666666"
     borderopacity="1.0"
     inkscape:pageshadow="2"
     inkscape:pageopacity="0.0"
     inkscape:pagecheckerboard="0"
     showgrid="false"
     height="100px"
     inkscape:zoom="4.9730289"
     inkscape:cx="17.393826"
     inkscape:cy="46.953277"
     inkscape:window-width="1600"
     inkscape:window-height="837"
     inkscape:window-x="-8"
     inkscape:window-y="-8"
     inkscape:window-maximized="1"
     inkscape:current-layer="svg8" /><path
     d="m 30.367493,0.340891 c -3.838442,0 -6.929532,3.0900575 -6.929532,6.9295451 V 92.729586 c 0,3.838429 3.090057,6.929523 6.929532,6.929523 h 39.265013 c 3.838445,0 6.929533,-3.090057 6.929533,-6.929523 V 7.2704361 c 0,-3.8384509 -3.090057,-6.9295451 -6.929533,-6.9295451 z M 28.057992,9.5799383 H 71.94242 V 83.490537 H 28.057992 Z M 50.000206,86.955101 c 2.551196,0 4.619002,2.06781 4.619002,4.619005 0,2.551196 -2.067806,4.619006 -4.619002,4.619006 -2.551196,0 -4.619002,-2.06781 -4.619002,-4.619006 0,-2.551195 2.067806,-4.619005 4.619002,-4.619005 z"
     id="path67"
     style="fill:#9356dc;fill-opacity:1;stroke-width:0.206223" /></svg>
